# Blender v2.82 (sub 7) OBJ File: 'character.blend'
# www.blender.org
mtllib character.mtl
o Icosphere
v 0.000000 1.797741 0.000000
v -0.446332 1.456777 0.324275
v 0.170481 1.456777 0.524693
v 0.551696 1.456775 0.000000
v 0.170481 1.456777 -0.524693
v -0.446332 1.456777 -0.324275
v -0.144443 0.783452 0.444557
v 0.378164 0.783452 0.274749
v 0.378164 0.783452 -0.274749
v -0.144443 0.783452 -0.444557
v -0.467435 0.783455 -0.000000
v 0.100205 1.705622 0.308405
v -0.262345 1.705622 0.190603
v -0.162141 1.505208 0.499011
v -0.524692 1.505208 0.000000
v -0.262345 1.705622 -0.190603
v 0.324278 1.705620 0.000000
v 0.424486 1.505207 0.308406
v 0.100205 1.705622 -0.308405
v 0.424486 1.505207 -0.308406
v -0.162141 1.505208 -0.499011
v -0.586627 1.119244 0.190604
v -0.586627 1.119244 -0.190604
v 0.000000 1.119244 0.616815
v -0.362555 1.119244 0.499014
v 0.586627 1.119244 0.190604
v 0.362555 1.119244 0.499014
v 0.362555 1.119244 -0.499014
v 0.586627 1.119244 -0.190604
v -0.362555 1.119244 -0.499014
v 0.000000 1.119244 -0.616815
v -0.359654 0.742419 0.261303
v 0.137378 0.742418 0.422797
v 0.444557 0.742419 -0.000000
v 0.137378 0.742418 -0.422797
v -0.359654 0.742419 -0.261303
v -0.084901 0.853476 0.261302
v -0.274751 0.853477 -0.000000
v 0.222278 0.853476 0.161492
v 0.222278 0.853476 -0.161492
v -0.084901 0.853476 -0.261302
v -0.311972 0.601641 0.226658
v 0.119160 0.601641 0.366744
v 0.385618 0.601639 -0.000000
v 0.119160 0.601641 -0.366744
v -0.311972 0.601641 -0.226658
v -0.119161 0.231438 0.366744
v 0.311972 0.231438 0.226658
v 0.311972 0.231438 -0.226658
v -0.119161 0.231438 -0.366744
v -0.385618 0.231440 -0.000000
v -0.000000 -0.006885 -0.000000
v 0.070040 0.775576 0.215565
v -0.183371 0.775576 0.133225
v -0.113332 0.635493 0.348793
v -0.366744 0.635492 -0.000000
v -0.183371 0.775576 -0.133225
v 0.226660 0.775575 -0.000000
v 0.296702 0.635492 0.215566
v 0.070040 0.775576 -0.215565
v 0.296702 0.635492 -0.215566
v -0.113332 0.635493 -0.348793
v -0.410034 0.418082 0.133226
v -0.410034 0.418082 -0.133226
v -0.000000 0.418082 0.431134
v -0.253415 0.418082 0.348795
v 0.410034 0.418082 0.133226
v 0.253414 0.418082 0.348795
v 0.253414 0.418082 -0.348795
v 0.410034 0.418082 -0.133226
v -0.253415 0.418082 -0.348795
v -0.000000 0.418082 -0.431134
v -0.296702 0.197587 0.215566
v 0.113332 0.197587 0.348793
v 0.366743 0.197587 -0.000000
v 0.113332 0.197587 -0.348793
v -0.296702 0.197587 -0.215566
v -0.070040 0.057504 0.215565
v -0.226660 0.057505 -0.000000
v 0.183371 0.057504 0.133225
v 0.183371 0.057504 -0.133225
v -0.070040 0.057504 -0.215565
vt 0.813259 0.032721
vt 0.767805 0.184785
vt 0.858714 0.184785
vt 0.722350 0.336849
vt 0.676896 0.184785
vt 0.631441 0.336849
vt 0.085987 0.032721
vt 0.040533 0.184785
vt 0.131442 0.184785
vt 0.267805 0.032721
vt 0.222351 0.184785
vt 0.313260 0.184785
vt 0.449623 0.032721
vt 0.404169 0.184785
vt 0.495078 0.184785
vt 0.676896 0.488911
vt 0.904168 0.336849
vt 0.813259 0.336849
vt 0.858714 0.488911
vt 0.176896 0.336849
vt 0.085987 0.336849
vt 0.131442 0.488911
vt 0.358714 0.336849
vt 0.267805 0.336849
vt 0.313260 0.488911
vt 0.540532 0.336849
vt 0.449623 0.336849
vt 0.495078 0.488911
vt 0.767805 0.488911
vt 0.949623 0.488911
vt 0.222351 0.488911
vt 0.404169 0.488911
vt 0.585987 0.488911
vt 0.813259 0.640974
vt 0.722350 0.640974
vt 0.767805 0.793038
vt 0.995078 0.640974
vt 0.904169 0.640974
vt 0.949623 0.793038
vt 0.267805 0.640974
vt 0.176896 0.640974
vt 0.222351 0.793038
vt 0.449623 0.640974
vt 0.358714 0.640974
vt 0.404169 0.793038
vt 0.631441 0.640974
vt 0.540532 0.640974
vt 0.585987 0.793038
vt 0.495078 0.793038
vt -0.004922 0.032721
vt -0.004922 0.032721
vt -0.004922 0.032721
vt 0.313260 0.793038
vt -0.004922 0.032721
vt 0.131442 0.793038
vt 0.085987 0.640974
vt -0.004922 0.032721
vt 0.858714 0.793038
vt 0.676896 0.793038
vt 0.040533 0.488911
vt -0.004922 0.336849
vt 0.585987 0.184785
vt 0.631441 0.032721
vt 0.722350 0.336849
vt 0.676896 0.184785
vt 0.631441 0.336849
vt -0.004922 0.032721
vt -0.004922 0.032721
vt -0.004922 0.032721
vt -0.004922 0.032721
vt 0.676896 0.488911
vt 0.904168 0.336849
vt 0.813259 0.336849
vt 0.858714 0.488911
vt 0.176896 0.336849
vt 0.085987 0.336849
vt 0.131442 0.488911
vt 0.358714 0.336849
vt 0.267805 0.336849
vt 0.313260 0.488911
vt 0.540532 0.336849
vt 0.449623 0.336849
vt 0.495078 0.488911
vt 0.767805 0.488911
vt 0.949623 0.488911
vt 0.222351 0.488911
vt 0.404169 0.488911
vt 0.585987 0.488911
vt 0.813259 0.640974
vt 0.722350 0.640974
vt 0.767805 0.793038
vt 0.995078 0.640974
vt 0.904169 0.640974
vt 0.949623 0.793038
vt 0.267805 0.640974
vt 0.176896 0.640974
vt 0.222351 0.793038
vt 0.449623 0.640974
vt 0.358714 0.640974
vt 0.404169 0.793038
vt 0.631441 0.640974
vt 0.540532 0.640974
vt 0.585987 0.793038
vt 0.495078 0.793038
vt 0.540532 0.945102
vt 0.313260 0.793038
vt 0.358714 0.945102
vt 0.131442 0.793038
vt 0.176896 0.945102
vt 0.085987 0.640974
vt 0.858714 0.793038
vt 0.904168 0.945102
vt 0.676896 0.793038
vt 0.722350 0.945102
vt 0.040533 0.488911
vt -0.004922 0.336849
vt 0.495078 0.184785
vt 0.404169 0.184785
vt 0.313260 0.184785
vt 0.222351 0.184785
vt 0.131442 0.184785
vt 0.040533 0.184785
vt 0.585987 0.184785
vt -0.004922 0.032721
vt 0.858714 0.184785
vt 0.767805 0.184785
vn -0.1024 0.9435 0.3151
vn -0.7002 0.6617 0.2680
vn 0.2680 0.9435 0.1947
vn 0.2680 0.9435 -0.1947
vn -0.1024 0.9435 -0.3151
vn -0.9231 0.2789 0.2647
vn -0.0335 0.2789 0.9597
vn 0.9024 0.2789 0.3284
vn 0.5912 0.2789 -0.7568
vn -0.5370 0.2789 -0.7961
vn -0.8047 0.1029 0.5847
vn 0.3074 0.1029 0.9460
vn 0.9947 0.1029 0.0000
vn 0.3074 0.1029 -0.9460
vn -0.8047 0.1029 -0.5847
vn 0.3650 -0.9030 -0.2265
vn -0.1026 -0.9030 -0.4171
vn -0.4284 -0.9030 -0.0313
vn -0.1622 -0.9030 0.3978
vn 0.3282 -0.9030 0.2772
vn 0.3616 -0.8946 0.2627
vn 0.3650 -0.9030 0.2265
vn 0.0000 -1.0000 0.0000
vn -0.1381 -0.8946 0.4251
vn -0.1026 -0.9030 0.4171
vn -0.4469 -0.8946 0.0000
vn -0.4284 -0.9030 0.0313
vn -0.1381 -0.8946 -0.4251
vn -0.1622 -0.9030 -0.3978
vn 0.3616 -0.8946 -0.2627
vn 0.3282 -0.9030 -0.2772
vn -0.8452 -0.4572 -0.2768
vn -0.7570 -0.3528 -0.5500
vn -0.5245 -0.4572 -0.7183
vn 0.0021 -0.4572 -0.8894
vn 0.2891 -0.3528 -0.8899
vn 0.5211 -0.4572 -0.7208
vn 0.8465 -0.4572 -0.2728
vn 0.9357 -0.3528 0.0000
vn 0.8465 -0.4572 0.2728
vn 0.5211 -0.4572 0.7208
vn 0.2891 -0.3528 0.8899
vn 0.0021 -0.4572 0.8894
vn -0.5245 -0.4572 0.7183
vn -0.7570 -0.3528 0.5500
vn -0.8452 -0.4572 0.2768
vn -0.2912 -0.3345 -0.8963
vn -0.3051 0.1584 -0.9390
vn -0.0335 0.2789 -0.9597
vn 0.7624 -0.3345 -0.5539
vn 0.7988 0.1584 -0.5804
vn 0.9024 0.2789 -0.3284
vn 0.7624 -0.3345 0.5539
vn 0.7988 0.1584 0.5804
vn 0.5912 0.2789 0.7568
vn -0.2912 -0.3345 0.8963
vn -0.3051 0.1584 0.9390
vn -0.5370 0.2789 0.7961
vn -0.9424 -0.3345 0.0000
vn -0.9874 0.1584 0.0000
vn -0.9231 0.2789 -0.2647
vn -0.4713 0.6617 -0.5831
vn -0.1876 0.7947 -0.5773
vn 0.0385 0.6617 -0.7488
vn 0.4089 0.6617 -0.6284
vn 0.4911 0.7947 -0.3568
vn 0.7240 0.6617 -0.1947
vn 0.7240 0.6617 0.1947
vn 0.4911 0.7947 0.3568
vn 0.4089 0.6617 0.6284
vn -0.7002 0.6617 -0.2680
vn -0.6071 0.7947 0.0000
vn -0.3313 0.9435 0.0000
vn 0.0385 0.6617 0.7488
vn -0.1876 0.7947 0.5773
vn -0.4713 0.6617 0.5831
vn 0.0000 1.0000 0.0000
vn -0.8997 0.3439 0.2688
vn -0.0224 0.3439 0.9388
vn 0.8859 0.3439 0.3114
vn 0.5699 0.3439 -0.7463
vn -0.5337 0.3439 -0.7726
vn -0.8020 0.1319 0.5827
vn 0.3063 0.1319 0.9428
vn 0.9913 0.1319 0.0000
vn 0.3063 0.1319 -0.9428
vn -0.8020 0.1319 -0.5827
vn -0.4089 -0.6617 0.6284
vn 0.4713 -0.6617 0.5831
vn 0.7002 -0.6617 -0.2680
vn -0.0385 -0.6617 -0.7488
vn -0.7240 -0.6617 -0.1947
vn -0.2680 -0.9435 -0.1947
vn -0.4911 -0.7947 -0.3568
vn -0.4089 -0.6617 -0.6284
vn 0.1024 -0.9435 -0.3151
vn 0.1876 -0.7947 -0.5773
vn 0.4713 -0.6617 -0.5831
vn 0.3313 -0.9435 0.0000
vn 0.6071 -0.7947 0.0000
vn 0.7002 -0.6617 0.2680
vn 0.1024 -0.9435 0.3151
vn 0.1876 -0.7947 0.5773
vn -0.0385 -0.6617 0.7488
vn -0.2680 -0.9435 0.1947
vn -0.4911 -0.7947 0.3568
vn -0.7240 -0.6617 0.1947
vn -0.8872 -0.3393 -0.3127
vn -0.7939 -0.1927 -0.5768
vn -0.5715 -0.3393 -0.7472
vn 0.0232 -0.3393 -0.9404
vn 0.3032 -0.1927 -0.9332
vn 0.5340 -0.3393 -0.7744
vn 0.9016 -0.3393 -0.2685
vn 0.9813 -0.1927 0.0000
vn 0.9016 -0.3393 0.2685
vn 0.5340 -0.3393 0.7744
vn 0.3032 -0.1927 0.9332
vn 0.0232 -0.3393 0.9404
vn -0.5715 -0.3393 0.7472
vn -0.7939 -0.1927 0.5768
vn -0.8872 -0.3393 0.3127
vn -0.3064 -0.1297 -0.9430
vn -0.3031 0.1953 -0.9327
vn -0.0224 0.3439 -0.9388
vn 0.8022 -0.1297 -0.5828
vn 0.7934 0.1953 -0.5765
vn 0.8859 0.3439 -0.3114
vn 0.8022 -0.1297 0.5828
vn 0.7934 0.1953 0.5765
vn 0.5699 0.3439 0.7463
vn -0.3064 -0.1297 0.9430
vn -0.3031 0.1953 0.9327
vn -0.5337 0.3439 0.7726
vn -0.9916 -0.1297 0.0000
vn -0.9807 0.1953 0.0000
vn -0.8997 0.3439 -0.2688
usemtl character
s off
f 1/1/1 13/2/1 12/3/1
f 2/4/2 13/5/2 15/6/2
f 1/7/3 12/8/3 17/9/3
f 1/10/4 17/11/4 19/12/4
f 1/13/5 19/14/5 16/15/5
f 2/4/6 15/6/6 22/16/6
f 3/17/7 14/18/7 24/19/7
f 4/20/8 18/21/8 26/22/8
f 5/23/9 20/24/9 28/25/9
f 6/26/10 21/27/10 30/28/10
f 2/4/11 22/16/11 25/29/11
f 3/17/12 24/19/12 27/30/12
f 4/20/13 26/22/13 29/31/13
f 5/23/14 28/25/14 31/32/14
f 6/26/15 30/28/15 23/33/15
f 7/34/16 32/35/16 37/36/16
f 8/37/17 33/38/17 39/39/17
f 9/40/18 34/41/18 40/42/18
f 10/43/19 35/44/19 41/45/19
f 11/46/20 36/47/20 38/48/20
f 38/48/21 36/47/21 41/49/21
f 36/47/22 10/43/22 41/49/22
f 40/50/23 39/51/23 41/52/23
f 41/45/24 35/44/24 40/53/24
f 35/44/25 9/40/25 40/53/25
f 41/52/23 39/51/23 37/54/23
f 40/42/26 34/41/26 39/55/26
f 34/41/27 8/56/27 39/55/27
f 38/57/23 41/52/23 37/54/23
f 39/39/28 33/38/28 37/58/28
f 33/38/29 7/34/29 37/58/29
f 37/36/30 32/35/30 38/59/30
f 32/35/31 11/46/31 38/59/31
f 23/33/32 36/47/32 11/46/32
f 23/33/33 30/28/33 36/47/33
f 30/28/34 10/43/34 36/47/34
f 31/32/35 35/44/35 10/43/35
f 31/32/36 28/25/36 35/44/36
f 28/25/37 9/40/37 35/44/37
f 29/31/38 34/41/38 9/40/38
f 29/31/39 26/22/39 34/41/39
f 26/22/40 8/56/40 34/41/40
f 27/30/41 33/38/41 8/37/41
f 27/30/42 24/19/42 33/38/42
f 24/19/43 7/34/43 33/38/43
f 25/29/44 32/35/44 7/34/44
f 25/29/45 22/16/45 32/35/45
f 22/16/46 11/46/46 32/35/46
f 30/28/47 31/32/47 10/43/47
f 30/28/48 21/27/48 31/32/48
f 21/27/49 5/23/49 31/32/49
f 28/25/50 29/31/50 9/40/50
f 28/25/51 20/24/51 29/31/51
f 20/24/52 4/20/52 29/31/52
f 26/22/53 27/60/53 8/56/53
f 26/22/54 18/21/54 27/60/54
f 18/21/55 3/61/55 27/60/55
f 24/19/56 25/29/56 7/34/56
f 24/19/57 14/18/57 25/29/57
f 14/18/58 2/4/58 25/29/58
f 22/16/59 23/33/59 11/46/59
f 22/16/60 15/6/60 23/33/60
f 15/6/61 6/26/61 23/33/61
f 16/15/62 21/27/62 6/26/62
f 16/15/63 19/14/63 21/27/63
f 19/14/64 5/23/64 21/27/64
f 19/12/65 20/24/65 5/23/65
f 19/12/66 17/11/66 20/24/66
f 17/11/67 4/20/67 20/24/67
f 17/9/68 18/21/68 4/20/68
f 17/9/69 12/8/69 18/21/69
f 12/8/70 3/61/70 18/21/70
f 15/6/71 16/62/71 6/26/71
f 15/6/72 13/5/72 16/62/72
f 13/5/73 1/63/73 16/62/73
f 12/3/74 14/18/74 3/17/74
f 12/3/75 13/2/75 14/18/75
f 13/2/76 2/4/76 14/18/76
f 42/64/2 54/65/2 56/66/2
f 58/67/77 60/68/77 53/69/77
f 60/68/77 54/70/77 53/69/77
f 42/64/78 56/66/78 63/71/78
f 43/72/79 55/73/79 65/74/79
f 44/75/80 59/76/80 67/77/80
f 45/78/81 61/79/81 69/80/81
f 46/81/82 62/82/82 71/83/82
f 42/64/83 63/71/83 66/84/83
f 43/72/84 65/74/84 68/85/84
f 44/75/85 67/77/85 70/86/85
f 45/78/86 69/80/86 72/87/86
f 46/81/87 71/83/87 64/88/87
f 47/89/88 73/90/88 78/91/88
f 48/92/89 74/93/89 80/94/89
f 49/95/90 75/96/90 81/97/90
f 50/98/91 76/99/91 82/100/91
f 51/101/92 77/102/92 79/103/92
f 79/103/93 82/104/93 52/105/93
f 79/103/94 77/102/94 82/104/94
f 77/102/95 50/98/95 82/104/95
f 82/100/96 81/106/96 52/107/96
f 82/100/97 76/99/97 81/106/97
f 76/99/98 49/95/98 81/106/98
f 81/97/99 80/108/99 52/109/99
f 81/97/100 75/96/100 80/108/100
f 75/96/101 48/110/101 80/108/101
f 80/94/102 78/111/102 52/112/102
f 80/94/103 74/93/103 78/111/103
f 74/93/104 47/89/104 78/111/104
f 78/91/105 79/113/105 52/114/105
f 78/91/106 73/90/106 79/113/106
f 73/90/107 51/101/107 79/113/107
f 64/88/108 77/102/108 51/101/108
f 64/88/109 71/83/109 77/102/109
f 71/83/110 50/98/110 77/102/110
f 72/87/111 76/99/111 50/98/111
f 72/87/112 69/80/112 76/99/112
f 69/80/113 49/95/113 76/99/113
f 70/86/114 75/96/114 49/95/114
f 70/86/115 67/77/115 75/96/115
f 67/77/116 48/110/116 75/96/116
f 68/85/117 74/93/117 48/92/117
f 68/85/118 65/74/118 74/93/118
f 65/74/119 47/89/119 74/93/119
f 66/84/120 73/90/120 47/89/120
f 66/84/121 63/71/121 73/90/121
f 63/71/122 51/101/122 73/90/122
f 71/83/123 72/87/123 50/98/123
f 71/83/124 62/82/124 72/87/124
f 62/82/125 45/78/125 72/87/125
f 69/80/126 70/86/126 49/95/126
f 69/80/127 61/79/127 70/86/127
f 61/79/128 44/75/128 70/86/128
f 67/77/129 68/115/129 48/110/129
f 67/77/130 59/76/130 68/115/130
f 59/76/131 43/116/131 68/115/131
f 65/74/132 66/84/132 47/89/132
f 65/74/133 55/73/133 66/84/133
f 55/73/134 42/64/134 66/84/134
f 63/71/135 64/88/135 51/101/135
f 63/71/136 56/66/136 64/88/136
f 56/66/137 46/81/137 64/88/137
f 57/117/62 62/82/62 46/81/62
f 57/117/63 60/118/63 62/82/63
f 60/118/64 45/78/64 62/82/64
f 60/119/65 61/79/65 45/78/65
f 60/119/66 58/120/66 61/79/66
f 58/120/67 44/75/67 61/79/67
f 58/121/68 59/76/68 44/75/68
f 58/121/69 53/122/69 59/76/69
f 53/122/70 43/116/70 59/76/70
f 56/66/71 57/123/71 46/81/71
f 56/66/72 54/65/72 57/123/72
f 57/124/77 54/70/77 60/68/77
f 53/125/74 55/73/74 43/72/74
f 53/125/75 54/126/75 55/73/75
f 54/126/76 42/64/76 55/73/76
